#define 28198_d87f824977c5772ab8a7ed7dee5cd86b91835d5592fdcc2766c7ebb349b24682-0_width 16
#define 28198_d87f824977c5772ab8a7ed7dee5cd86b91835d5592fdcc2766c7ebb349b24682-0_height 16
static char 28198_d87f824977c5772ab8a7ed7dee5cd86b91835d5592fdcc2766c7ebb349b24682-0_bits[] = {
  0x0F, 0xF0, 0x07, 0xE0, 0x03, 0xE0, 0x03, 0xC0, 0x03, 0xC0, 0x03, 0xC0, 
  0x03, 0xE0, 0x07, 0xE0, 0x0F, 0xF0, 0x1F, 0xF8, 0x1F, 0xF8, 0x1F, 0xF8, 
  0x1F, 0xF8, 0x1F, 0xF8, 0x81, 0x81, 0x01, 0x80, };
